<svg xmlns="http://www.w3.org/2000/svg"  viewBox="0 0 64 64" width="256px" height="256px"><path d="M53,7c-18.225,8.505-27.245,3.785-36,14c-6,7-5,17-1,22c0.693,0.866,1.514,1.76,2.444,2.641	c-0.192,0.314-0.394,0.621-0.582,0.936c-1.198,1.994-2.3,4.044-3.33,6.136c-1.033,2.115-1.969,4.177-2.821,6.511l4.753,1.552	c0.631-1.949,1.48-4.058,2.368-6.046c0.494-1.105,1.017-2.199,1.56-3.284c0.838-1.784,1.731-3.497,2.686-5.21	c1.453-2.594,3.024-5.116,4.725-7.544c1.691-2.435,3.489-4.794,5.428-7.032c1.9-2.271,3.993-4.372,6.118-6.422l1.405,1.423	c-1.952,2.115-3.864,4.263-5.579,6.571c-1.753,2.274-3.362,4.657-4.861,7.102c-1.509,2.438-2.884,4.957-4.136,7.527	c-0.398,0.817-0.783,1.649-1.159,2.485C28.04,51.931,31.449,53,35,53c9,0,19.156-5.093,21-18C58,21,53,7,53,7z"/></svg>